<?xml version="1.0" encoding="UTF-8" standalone="no"?>
<!-- Created with Inkscape (http://www.inkscape.org/) -->

<svg
   xmlns:dc="http://purl.org/dc/elements/1.1/"
   xmlns:cc="http://creativecommons.org/ns#"
   xmlns:rdf="http://www.w3.org/1999/02/22-rdf-syntax-ns#"
   xmlns:svg="http://www.w3.org/2000/svg"
   xmlns="http://www.w3.org/2000/svg"
   xmlns:sodipodi="http://sodipodi.sourceforge.net/DTD/sodipodi-0.dtd"
   xmlns:inkscape="http://www.inkscape.org/namespaces/inkscape"
   width="100"
   height="100"
   viewBox="0 0 100 100"
   id="svg2"
   version="1.1"
   inkscape:version="0.91 r13725"
   sodipodi:docname="Logo.svg">
  <defs
     id="defs4" />
  <sodipodi:namedview
     id="base"
     pagecolor="#404040"
     bordercolor="#666666"
     borderopacity="1.0"
     inkscape:pageopacity="1"
     inkscape:pageshadow="2"
     inkscape:zoom="2.8"
     inkscape:cx="49.04602"
     inkscape:cy="34.114919"
     inkscape:document-units="px"
     inkscape:current-layer="layer1"
     showgrid="false"
     units="px"
     inkscape:window-width="1440"
     inkscape:window-height="814"
     inkscape:window-x="0"
     inkscape:window-y="0"
     inkscape:window-maximized="1" />
  <metadata
     id="metadata7">
    <rdf:RDF>
      <cc:Work
         rdf:about="">
        <dc:format>image/svg+xml</dc:format>
        <dc:type
           rdf:resource="http://purl.org/dc/dcmitype/StillImage" />
        <dc:title></dc:title>
      </cc:Work>
    </rdf:RDF>
  </metadata>
  <g
     inkscape:label="Layer 1"
     inkscape:groupmode="layer"
     id="layer1"
     transform="translate(0,-952.36212)">
    <path
       style="opacity:1;fill:#ffffff;fill-opacity:1;stroke:#1a1a1a;stroke-width:0;stroke-miterlimit:4;stroke-dasharray:none"
       d="m 44.048833,1008.3133 c 0.10186,0 0.20839,0.023 0.30957,0.023 1.230468,0 2.172852,-0.2051 2.827148,-0.6152 0.654298,-0.4102 0.981446,-0.9961 0.981446,-1.7578 0,-0.5423 -0.18212,-0.9581 -0.464844,-1.3037 l -3.65332,3.6533 z"
       id="path4238"
       inkscape:connector-curvature="0" />
    <path
       style="opacity:1;fill:#cccccc;fill-opacity:1;stroke:#1a1a1a;stroke-width:0;stroke-miterlimit:4;stroke-dasharray:none"
       d="m 28.250005,1024.1121 49.875,0 0,-43.74996 -6.125,0 -9.69532,9.69532 c 0.8048,-0.1592 1.60416,-0.32422 2.57618,-0.32422 1.20118,0 2.43652,0.0928 3.70606,0.2783 1.26952,0.1758 2.583,0.44434 3.94044,0.80568 l 0,4.6289 c -1.2012,-0.5371 -2.37306,-0.94238 -3.51564,-1.21582 -1.14258,-0.27342 -2.22168,-0.41016 -3.2373,-0.41016 -1.34766,0 -2.34376,0.1856 -2.98828,0.55666 -0.64454,0.37108 -0.96682,0.94724 -0.96682,1.7285 0,0.58594 0.21486,1.04492 0.64454,1.37696 0.43946,0.32226 1.23046,0.60058 2.37306,0.83496 l 2.40234,0.4834 c 2.43164,0.48828 4.16016,1.23048 5.18556,2.22658 1.02538,0.9961 1.53808,2.4121 1.53808,4.248 0,2.4121 -0.71778,4.209 -2.15332,5.3907 -1.42578,1.1718 -3.60842,1.7578 -6.54786,1.7578 -1.38672,0 -2.77832,-0.1318 -4.1748,-0.3955 -1.3965,-0.2637 -2.79298,-0.6543 -4.18946,-1.1719 l 0,-4.7608 c 1.39648,0.7422 2.74414,1.3037 4.04296,1.6846 1.30862,0.3711 2.56838,0.5566 3.77932,0.5566 1.23046,0 2.17284,-0.205 2.82714,-0.6152 0.6543,-0.4101 0.98144,-0.9961 0.98144,-1.7578 0,-0.6836 -0.2246,-1.2109 -0.67382,-1.582 -0.43946,-0.3711 -1.32324,-0.7032 -2.65136,-0.9961 l -2.18262,-0.4834 c -2.1875,-0.4688 -3.78906,-1.2158 -4.8047,-2.2412 -1.00586,-1.02542 -1.50878,-2.40726 -1.50878,-4.14554 0,-0.33302 0.0482,-0.6319 0.081,-0.94142 l -5.1709,5.17096 c 0.1272,0.1018 0.33544,0.1746 0.44628,0.2822 1.0254,0.9961 1.5381,2.4121 1.53808,4.248 0,2.4121 -0.71776,4.209 -2.15332,5.3907 -1.42578,1.1718 -3.608396,1.7578 -6.547848,1.7578 -1.38672,0 -2.77832,-0.1318 -4.174806,-0.3955 -0.10192,-0.02 -0.203738,-0.065 -0.305664,-0.086 l -12.169862,12.1697 z"
       id="path4236"
       inkscape:connector-curvature="0" />
    <path
       style="opacity:1;fill:#ffffff;fill-opacity:1;stroke:#1a1a1a;stroke-width:0;stroke-miterlimit:4;stroke-dasharray:none"
       d="m 28.250005,1024.1121 12.169922,-12.1699 c -1.29456,-0.2616 -2.589232,-0.6061 -3.883788,-1.0859 l 0,-4.7608 c 1.396482,0.7422 2.74414,1.3037 4.042968,1.6846 1.199254,0.3401 2.35249,0.5048 3.469726,0.5332 l 3.65332,-3.6533 c -0.07364,-0.09 -0.11614,-0.2016 -0.208984,-0.2783 -0.439454,-0.3711 -1.323242,-0.7032 -2.651368,-0.9961 l -2.182618,-0.4834 c -2.1875,-0.4688 -3.789062,-1.2158 -4.804686,-2.2412 -1.005858,-1.02543 -1.508788,-2.40727 -1.508788,-4.14555 0,-2.17774 0.703124,-3.85254 2.109374,-5.02442 1.40625,-1.17186 3.427734,-1.75782 6.064452,-1.75782 1.201174,0 2.436524,0.0928 3.706056,0.27832 1.26953,0.1758 2.583014,0.44434 3.940434,0.80569 l 0,4.6289 c -1.20118,-0.53712 -2.373052,-0.94238 -3.51563,-1.21582 -1.142578,-0.27344 -2.221678,-0.41016 -3.237304,-0.41016 -1.347658,0 -2.34375,0.1856 -2.988282,0.55664 -0.64453,0.3711 -0.966796,0.94726 -0.966796,1.72852 0,0.58594 0.214844,1.04492 0.644532,1.37696 0.439452,0.32226 1.230468,0.60058 2.373046,0.83496 l 2.402342,0.4834 c 2.168794,0.4355 3.689132,1.10486 4.739252,1.94438 l 5.1709,-5.17096 c 0.1822,-1.71438 0.83712,-3.09032 2.02834,-4.083 0.88784,-0.73986 2.10996,-1.16084 3.48826,-1.43358 l 9.69532,-9.69532 -50.125,0 0,33.37986 0.378906,0 c 1.171874,0 2.055666,-0.3271 2.651366,-0.9814 0.60547,-0.6543 0.908204,-1.6162 0.908204,-2.8858 l 0,-19.74606 5.639648,0 0,19.74606 c 0,2.7246 -0.742188,4.7608 -2.226562,6.1084 -1.47461,1.3477 -3.710938,2.0215 -6.708984,2.0215 l -0.642578,0 0,6.1074 6.375,0 z"
       id="path4234"
       inkscape:connector-curvature="0" />
    <path
       style="opacity:1;fill:#cccccc;fill-opacity:1;stroke:#1a1a1a;stroke-width:0;stroke-miterlimit:4;stroke-dasharray:none"
       d="m 85.355485,967.00668 -4.41994,4.41992 c 7.9172,7.9172 12.81446,18.85432 12.81446,30.9355 0,24.1625 -19.58754,43.75 -43.75,43.75 -12.08123,0 -23.018354,-4.8972 -30.935546,-12.8144 l -4.419924,4.4199 c 9.04822,9.0482 21.54835,14.6445 35.35547,14.6445 27.61422,0 49.999995,-22.3857 49.999995,-50 0,-13.80708 -5.596295,-26.3072 -14.644515,-35.35542 z"
       id="path4232"
       inkscape:connector-curvature="0" />
    <path
       style="opacity:1;fill:#ffffff;fill-opacity:1;stroke:#1a1a1a;stroke-width:0;stroke-miterlimit:4;stroke-dasharray:none"
       d="m 50.000005,952.36214 c -27.614238,0 -50.0000000000001,22.38576 -50.0000000000001,49.99996 0,13.8071 5.5963120000001,26.3073 14.6445300000001,35.3555 l 4.419924,-4.4199 c -7.917194,-7.9172 -12.814454,-18.8543 -12.814454,-30.9356 -2e-6,-24.16242 19.58754,-43.74996 43.75,-43.74996 12.08124,0 23.01836,4.89726 30.93554,12.81444 l 4.41994,-4.4199 c -9.04822,-9.04824 -21.54836,-14.64454 -35.35548,-14.64454 z"
       id="path4179"
       inkscape:connector-curvature="0" />
  </g>
</svg>
